<svg width="155" height="155" viewBox="0 0 155 155" fill="none" xmlns="http://www.w3.org/2000/svg">
<g id="Group 5">
<g id="top-head">
<path id="ear-right" d="M102.5 57L98.5282 47.5669C98.5094 47.5223 98.4939 47.4765 98.4818 47.4298L95.5607 36.1627C95.3439 35.3264 94.2399 35.1401 93.7607 35.859L87 46L81 53.5" stroke="black" stroke-width="4" stroke-linecap="round"/>
<path id="head" d="M59.75 51.2L65.5 50.5H69.6108C72.4947 50.5 75.3363 51.1929 77.8965 52.5204L80.75 54" stroke="black" stroke-width="4" stroke-linecap="round"/>
<path id="ear-left" d="M34 58.5L42.9549 44.5702C42.9849 44.5235 43.011 44.4744 43.0329 44.4233L46.7728 35.6968C47.0856 34.9669 48.0835 34.8752 48.524 35.536L53.5 43L59.5 50" stroke="black" stroke-width="4" stroke-linecap="round"/>
</g>
<path id="chin" d="M39 104L39.9892 104.989C42.9791 107.979 46.4053 110.498 50.1509 112.46C53.3699 114.146 56.795 115.405 60.3396 116.206L63.2134 116.855C68.0458 117.946 73.0105 118.333 77.9535 118.003C82.9576 117.669 87.8859 116.605 92.5817 114.844L101.5 111.5" stroke="black" stroke-width="4" stroke-linecap="round"/>
<g id="whiskers">
<path id="whisker-left-bottom" d="M42 87.5L24.5 90.5" stroke="black" stroke-width="4" stroke-linecap="round"/>
<path id="whisker-left-top" d="M42 77.5L18 73" stroke="black" stroke-width="4" stroke-linecap="round"/>
<path id="whisker-right-bottom" d="M111 89L130.5 92.5" stroke="black" stroke-width="4" stroke-linecap="round"/>
<path id="whisker-right-top" d="M111 80.5L136 76.5" stroke="black" stroke-width="4" stroke-linecap="round"/>
</g>
<g id="eyes">
<circle id="eye-right" cx="88.5" cy="75.5" r="4.5" fill="black"/>
<circle id="eye-left" cx="61.5" cy="73.5" r="4.5" fill="black"/>
</g>
<g id="nose-mouth">
<path id="nose" d="M71.9 88.3L71.5 88.3" stroke="black" stroke-width="9" stroke-linecap="round"/>
<path id="mouth" d="M65 98.5C65 98.5 68.0546 99.6094 70 99C72.7701 98.1323 72 91.5 72 91.5C72 91.5 72.5 95.5 73 97.5C73.5 99.5 74.7104 99.9258 75.5 100.5C77.0792 101.648 80.5 100 80.5 100" stroke="black" stroke-width="4" stroke-linecap="round"/>
</g>
<circle id="circle" cx="77.5" cy="77.5" r="76.5" stroke="black" stroke-width="2"/>
</g>
</svg>
